<svg width="48" height="32" viewBox="0 0 48 32" fill="none" xmlns="http://www.w3.org/2000/svg">
<g clip-path="url(#clip0_171_72)">
<path d="M39 13C39 15.8687 37.6031 18.5188 35.25 20.6688L47.1188 28.5875C48.2906 29.3687 48.2906 30.6375 47.1188 31.4188C45.9469 32.2 44.0437 32.2 42.8719 31.4188L31.0031 23.5C27.7781 25.075 23.8031 26 19.5 26C8.72812 26 0 20.1812 0 13C0 5.81875 8.72812 0 19.5 0C30.2719 0 39 5.81875 39 13ZM19.5 22C26.9531 22 33 17.9688 33 13C33 8.03125 26.9531 4 19.5 4C12.0469 4 6 8.03125 6 13C6 17.9688 12.0469 22 19.5 22Z" fill="#F2CD75"/>
</g>
<defs>
<clipPath id="clip0_171_72">
<rect width="48" height="32" fill="white"/>
</clipPath>
</defs>
</svg>
