<svg width="1512" height="982" viewBox="0 0 1512 982" fill="none" xmlns="http://www.w3.org/2000/svg">
<g clip-path="url(#clip0_1_2)">
<rect width="1512" height="982" fill="white"/>
<rect width="1512" height="36" fill="#D9D9D9"/>
<rect x="422" y="274" width="668" height="86" fill="#D9D9D9"/>
<rect x="638" y="401" width="224" height="56" rx="10" fill="#D9D9D9"/>
<path d="M494.682 203.409C494.53 201.742 493.856 200.447 492.659 199.523C491.477 198.583 489.788 198.114 487.591 198.114C486.136 198.114 484.924 198.303 483.955 198.682C482.985 199.061 482.258 199.583 481.773 200.25C481.288 200.902 481.038 201.652 481.023 202.5C480.992 203.197 481.129 203.811 481.432 204.341C481.75 204.871 482.205 205.341 482.795 205.75C483.402 206.144 484.129 206.492 484.977 206.795C485.826 207.098 486.78 207.364 487.841 207.591L491.841 208.5C494.144 209 496.174 209.667 497.932 210.5C499.705 211.333 501.189 212.326 502.386 213.477C503.598 214.629 504.515 215.955 505.136 217.455C505.758 218.955 506.076 220.636 506.091 222.5C506.076 225.439 505.333 227.962 503.864 230.068C502.394 232.174 500.28 233.788 497.523 234.909C494.78 236.03 491.47 236.591 487.591 236.591C483.697 236.591 480.303 236.008 477.409 234.841C474.515 233.674 472.265 231.902 470.659 229.523C469.053 227.144 468.227 224.136 468.182 220.5H478.955C479.045 222 479.447 223.25 480.159 224.25C480.871 225.25 481.848 226.008 483.091 226.523C484.348 227.038 485.803 227.295 487.455 227.295C488.97 227.295 490.258 227.091 491.318 226.682C492.394 226.273 493.22 225.705 493.795 224.977C494.371 224.25 494.667 223.417 494.682 222.477C494.667 221.598 494.394 220.848 493.864 220.227C493.333 219.591 492.515 219.045 491.409 218.591C490.318 218.121 488.924 217.689 487.227 217.295L482.364 216.159C478.333 215.235 475.159 213.742 472.841 211.682C470.523 209.606 469.371 206.803 469.386 203.273C469.371 200.394 470.144 197.871 471.705 195.705C473.265 193.538 475.424 191.848 478.182 190.636C480.939 189.424 484.083 188.818 487.614 188.818C491.22 188.818 494.348 189.432 497 190.659C499.667 191.871 501.735 193.576 503.205 195.773C504.674 197.97 505.424 200.515 505.455 203.409H494.682ZM528.091 236.659C524.439 236.659 521.288 235.939 518.636 234.5C516 233.045 513.97 230.977 512.545 228.295C511.136 225.598 510.432 222.394 510.432 218.682C510.432 215.076 511.144 211.924 512.568 209.227C513.992 206.515 516 204.409 518.591 202.909C521.182 201.394 524.235 200.636 527.75 200.636C530.235 200.636 532.508 201.023 534.568 201.795C536.629 202.568 538.409 203.712 539.909 205.227C541.409 206.742 542.576 208.614 543.409 210.841C544.242 213.053 544.659 215.591 544.659 218.455V221.227H514.318V214.773H534.318C534.303 213.591 534.023 212.538 533.477 211.614C532.932 210.689 532.182 209.97 531.227 209.455C530.288 208.924 529.205 208.659 527.977 208.659C526.735 208.659 525.621 208.939 524.636 209.5C523.652 210.045 522.871 210.795 522.295 211.75C521.72 212.689 521.417 213.758 521.386 214.955V221.523C521.386 222.947 521.667 224.197 522.227 225.273C522.788 226.333 523.583 227.159 524.614 227.75C525.644 228.341 526.871 228.636 528.295 228.636C529.28 228.636 530.174 228.5 530.977 228.227C531.78 227.955 532.47 227.553 533.045 227.023C533.621 226.492 534.053 225.841 534.341 225.068L544.545 225.364C544.121 227.652 543.189 229.644 541.75 231.341C540.326 233.023 538.455 234.333 536.136 235.273C533.818 236.197 531.136 236.659 528.091 236.659ZM560.176 236.591C557.949 236.591 555.972 236.22 554.244 235.477C552.532 234.72 551.176 233.583 550.176 232.068C549.191 230.538 548.699 228.621 548.699 226.318C548.699 224.379 549.04 222.742 549.722 221.409C550.403 220.076 551.343 218.992 552.54 218.159C553.737 217.326 555.116 216.697 556.676 216.273C558.237 215.833 559.903 215.538 561.676 215.386C563.661 215.205 565.259 215.015 566.472 214.818C567.684 214.606 568.563 214.311 569.108 213.932C569.669 213.538 569.949 212.985 569.949 212.273V212.159C569.949 210.992 569.547 210.091 568.744 209.455C567.941 208.818 566.858 208.5 565.494 208.5C564.025 208.5 562.843 208.818 561.949 209.455C561.055 210.091 560.487 210.97 560.244 212.091L549.994 211.727C550.297 209.606 551.078 207.712 552.335 206.045C553.608 204.364 555.35 203.045 557.562 202.091C559.79 201.121 562.464 200.636 565.585 200.636C567.813 200.636 569.866 200.902 571.744 201.432C573.623 201.947 575.259 202.705 576.653 203.705C578.047 204.689 579.123 205.902 579.881 207.341C580.653 208.78 581.04 210.424 581.04 212.273V236H570.585V231.136H570.312C569.691 232.318 568.896 233.318 567.926 234.136C566.972 234.955 565.843 235.568 564.54 235.977C563.252 236.386 561.797 236.591 560.176 236.591ZM563.608 229.318C564.805 229.318 565.881 229.076 566.835 228.591C567.805 228.106 568.578 227.439 569.153 226.591C569.729 225.727 570.017 224.727 570.017 223.591V220.273C569.699 220.439 569.313 220.591 568.858 220.727C568.419 220.864 567.934 220.992 567.403 221.114C566.873 221.235 566.328 221.341 565.767 221.432C565.206 221.523 564.669 221.606 564.153 221.682C563.108 221.848 562.214 222.106 561.472 222.455C560.744 222.803 560.184 223.258 559.79 223.818C559.411 224.364 559.222 225.015 559.222 225.773C559.222 226.924 559.631 227.803 560.449 228.409C561.282 229.015 562.335 229.318 563.608 229.318ZM587.835 236V201.091H598.631V207.455H598.994C599.631 205.152 600.669 203.439 602.108 202.318C603.547 201.182 605.222 200.614 607.131 200.614C607.646 200.614 608.176 200.652 608.722 200.727C609.267 200.788 609.775 200.886 610.244 201.023V210.682C609.714 210.5 609.017 210.356 608.153 210.25C607.305 210.144 606.547 210.091 605.881 210.091C604.563 210.091 603.373 210.386 602.312 210.977C601.267 211.553 600.441 212.364 599.835 213.409C599.244 214.439 598.949 215.652 598.949 217.045V236H587.835ZM629.256 236.659C625.574 236.659 622.415 235.902 619.778 234.386C617.157 232.871 615.142 230.765 613.733 228.068C612.324 225.356 611.619 222.22 611.619 218.659C611.619 215.083 612.324 211.947 613.733 209.25C615.157 206.538 617.18 204.424 619.801 202.909C622.438 201.394 625.581 200.636 629.233 200.636C632.46 200.636 635.271 201.22 637.665 202.386C640.074 203.553 641.953 205.205 643.301 207.341C644.665 209.462 645.384 211.955 645.46 214.818H635.074C634.862 213.03 634.256 211.629 633.256 210.614C632.271 209.598 630.983 209.091 629.392 209.091C628.104 209.091 626.975 209.455 626.006 210.182C625.036 210.894 624.278 211.955 623.733 213.364C623.203 214.758 622.938 216.485 622.938 218.545C622.938 220.606 623.203 222.348 623.733 223.773C624.278 225.182 625.036 226.25 626.006 226.977C626.975 227.689 628.104 228.045 629.392 228.045C630.422 228.045 631.331 227.826 632.119 227.386C632.922 226.947 633.581 226.303 634.097 225.455C634.612 224.591 634.938 223.545 635.074 222.318H645.46C645.354 225.197 644.634 227.712 643.301 229.864C641.983 232.015 640.127 233.689 637.733 234.886C635.354 236.068 632.528 236.659 629.256 236.659ZM662.261 216.091V236H651.148V189.455H661.898V207.5H662.284C663.072 205.348 664.36 203.667 666.148 202.455C667.951 201.242 670.155 200.636 672.761 200.636C675.216 200.636 677.352 201.182 679.17 202.273C680.989 203.348 682.398 204.871 683.398 206.841C684.413 208.811 684.913 211.114 684.898 213.75V236H673.784V215.932C673.799 213.992 673.314 212.477 672.33 211.386C671.345 210.295 669.958 209.75 668.17 209.75C667.004 209.75 665.973 210.008 665.08 210.523C664.201 211.023 663.511 211.742 663.011 212.682C662.527 213.621 662.277 214.758 662.261 216.091ZM705.585 236V189.455H737.358V198.591H716.835V208.136H735.335V217.295H716.835V236H705.585ZM756.756 236.659C753.089 236.659 749.938 235.909 747.301 234.409C744.68 232.894 742.657 230.788 741.233 228.091C739.824 225.379 739.119 222.235 739.119 218.659C739.119 215.068 739.824 211.924 741.233 209.227C742.657 206.515 744.68 204.409 747.301 202.909C749.938 201.394 753.089 200.636 756.756 200.636C760.422 200.636 763.566 201.394 766.188 202.909C768.824 204.409 770.847 206.515 772.256 209.227C773.68 211.924 774.392 215.068 774.392 218.659C774.392 222.235 773.68 225.379 772.256 228.091C770.847 230.788 768.824 232.894 766.188 234.409C763.566 235.909 760.422 236.659 756.756 236.659ZM756.824 228.273C758.157 228.273 759.286 227.864 760.21 227.045C761.134 226.227 761.839 225.091 762.324 223.636C762.824 222.182 763.074 220.5 763.074 218.591C763.074 216.652 762.824 214.955 762.324 213.5C761.839 212.045 761.134 210.909 760.21 210.091C759.286 209.273 758.157 208.864 756.824 208.864C755.445 208.864 754.278 209.273 753.324 210.091C752.384 210.909 751.665 212.045 751.165 213.5C750.68 214.955 750.438 216.652 750.438 218.591C750.438 220.5 750.68 222.182 751.165 223.636C751.665 225.091 752.384 226.227 753.324 227.045C754.278 227.864 755.445 228.273 756.824 228.273ZM780.085 236V201.091H790.881V207.455H791.244C791.881 205.152 792.919 203.439 794.358 202.318C795.797 201.182 797.472 200.614 799.381 200.614C799.896 200.614 800.426 200.652 800.972 200.727C801.517 200.788 802.025 200.886 802.494 201.023V210.682C801.964 210.5 801.267 210.356 800.403 210.25C799.555 210.144 798.797 210.091 798.131 210.091C796.813 210.091 795.623 210.386 794.562 210.977C793.517 211.553 792.691 212.364 792.085 213.409C791.494 214.439 791.199 215.652 791.199 217.045V236H780.085ZM820.773 236V189.455H840C843.485 189.455 846.492 190.083 849.023 191.341C851.568 192.583 853.53 194.371 854.909 196.705C856.288 199.023 856.977 201.773 856.977 204.955C856.977 208.182 856.273 210.924 854.864 213.182C853.455 215.424 851.455 217.136 848.864 218.318C846.273 219.485 843.205 220.068 839.659 220.068H827.5V211.205H837.568C839.265 211.205 840.682 210.985 841.818 210.545C842.97 210.091 843.841 209.409 844.432 208.5C845.023 207.576 845.318 206.394 845.318 204.955C845.318 203.515 845.023 202.326 844.432 201.386C843.841 200.432 842.97 199.72 841.818 199.25C840.667 198.765 839.25 198.523 837.568 198.523H832.023V236H820.773ZM846.977 214.727L858.568 236H846.295L834.932 214.727H846.977ZM878.778 236.659C875.127 236.659 871.975 235.939 869.324 234.5C866.688 233.045 864.657 230.977 863.233 228.295C861.824 225.598 861.119 222.394 861.119 218.682C861.119 215.076 861.831 211.924 863.256 209.227C864.68 206.515 866.688 204.409 869.278 202.909C871.869 201.394 874.922 200.636 878.438 200.636C880.922 200.636 883.195 201.023 885.256 201.795C887.316 202.568 889.097 203.712 890.597 205.227C892.097 206.742 893.263 208.614 894.097 210.841C894.93 213.053 895.347 215.591 895.347 218.455V221.227H865.006V214.773H885.006C884.991 213.591 884.71 212.538 884.165 211.614C883.619 210.689 882.869 209.97 881.915 209.455C880.975 208.924 879.892 208.659 878.665 208.659C877.422 208.659 876.309 208.939 875.324 209.5C874.339 210.045 873.559 210.795 872.983 211.75C872.407 212.689 872.104 213.758 872.074 214.955V221.523C872.074 222.947 872.354 224.197 872.915 225.273C873.475 226.333 874.271 227.159 875.301 227.75C876.331 228.341 877.559 228.636 878.983 228.636C879.968 228.636 880.862 228.5 881.665 228.227C882.468 227.955 883.157 227.553 883.733 227.023C884.309 226.492 884.741 225.841 885.028 225.068L895.233 225.364C894.809 227.652 893.877 229.644 892.438 231.341C891.013 233.023 889.142 234.333 886.824 235.273C884.506 236.197 881.824 236.659 878.778 236.659ZM917.318 236.659C913.636 236.659 910.477 235.902 907.841 234.386C905.22 232.871 903.205 230.765 901.795 228.068C900.386 225.356 899.682 222.22 899.682 218.659C899.682 215.083 900.386 211.947 901.795 209.25C903.22 206.538 905.242 204.424 907.864 202.909C910.5 201.394 913.644 200.636 917.295 200.636C920.523 200.636 923.333 201.22 925.727 202.386C928.136 203.553 930.015 205.205 931.364 207.341C932.727 209.462 933.447 211.955 933.523 214.818H923.136C922.924 213.03 922.318 211.629 921.318 210.614C920.333 209.598 919.045 209.091 917.455 209.091C916.167 209.091 915.038 209.455 914.068 210.182C913.098 210.894 912.341 211.955 911.795 213.364C911.265 214.758 911 216.485 911 218.545C911 220.606 911.265 222.348 911.795 223.773C912.341 225.182 913.098 226.25 914.068 226.977C915.038 227.689 916.167 228.045 917.455 228.045C918.485 228.045 919.394 227.826 920.182 227.386C920.985 226.947 921.644 226.303 922.159 225.455C922.674 224.591 923 223.545 923.136 222.318H933.523C933.417 225.197 932.697 227.712 931.364 229.864C930.045 232.015 928.189 233.689 925.795 234.886C923.417 236.068 920.591 236.659 917.318 236.659ZM939.21 236V201.091H950.324V236H939.21ZM944.778 197.023C943.218 197.023 941.877 196.508 940.756 195.477C939.634 194.432 939.074 193.174 939.074 191.705C939.074 190.25 939.634 189.008 940.756 187.977C941.877 186.932 943.218 186.409 944.778 186.409C946.354 186.409 947.695 186.932 948.801 187.977C949.922 189.008 950.483 190.25 950.483 191.705C950.483 193.174 949.922 194.432 948.801 195.477C947.695 196.508 946.354 197.023 944.778 197.023ZM957.398 249.091V201.091H968.398V207.068H968.739C969.193 206.008 969.837 204.985 970.67 204C971.519 203.015 972.595 202.212 973.898 201.591C975.216 200.955 976.792 200.636 978.625 200.636C981.049 200.636 983.314 201.273 985.42 202.545C987.542 203.818 989.254 205.78 990.557 208.432C991.86 211.083 992.511 214.462 992.511 218.568C992.511 222.523 991.883 225.833 990.625 228.5C989.383 231.167 987.701 233.167 985.58 234.5C983.473 235.833 981.133 236.5 978.557 236.5C976.799 236.5 975.277 236.212 973.989 235.636C972.701 235.061 971.617 234.303 970.739 233.364C969.875 232.424 969.208 231.417 968.739 230.341H968.511V249.091H957.398ZM968.284 218.545C968.284 220.424 968.534 222.061 969.034 223.455C969.549 224.848 970.284 225.932 971.239 226.705C972.208 227.462 973.367 227.841 974.716 227.841C976.08 227.841 977.239 227.462 978.193 226.705C979.148 225.932 979.867 224.848 980.352 223.455C980.852 222.061 981.102 220.424 981.102 218.545C981.102 216.667 980.852 215.038 980.352 213.659C979.867 212.28 979.148 211.212 978.193 210.455C977.254 209.697 976.095 209.318 974.716 209.318C973.352 209.318 972.193 209.689 971.239 210.432C970.284 211.174 969.549 212.235 969.034 213.614C968.534 214.992 968.284 216.636 968.284 218.545ZM1014.65 236.659C1011 236.659 1007.85 235.939 1005.2 234.5C1002.56 233.045 1000.53 230.977 999.108 228.295C997.699 225.598 996.994 222.394 996.994 218.682C996.994 215.076 997.706 211.924 999.131 209.227C1000.55 206.515 1002.56 204.409 1005.15 202.909C1007.74 201.394 1010.8 200.636 1014.31 200.636C1016.8 200.636 1019.07 201.023 1021.13 201.795C1023.19 202.568 1024.97 203.712 1026.47 205.227C1027.97 206.742 1029.14 208.614 1029.97 210.841C1030.8 213.053 1031.22 215.591 1031.22 218.455V221.227H1000.88V214.773H1020.88C1020.87 213.591 1020.59 212.538 1020.04 211.614C1019.49 210.689 1018.74 209.97 1017.79 209.455C1016.85 208.924 1015.77 208.659 1014.54 208.659C1013.3 208.659 1012.18 208.939 1011.2 209.5C1010.21 210.045 1009.43 210.795 1008.86 211.75C1008.28 212.689 1007.98 213.758 1007.95 214.955V221.523C1007.95 222.947 1008.23 224.197 1008.79 225.273C1009.35 226.333 1010.15 227.159 1011.18 227.75C1012.21 228.341 1013.43 228.636 1014.86 228.636C1015.84 228.636 1016.74 228.5 1017.54 228.227C1018.34 227.955 1019.03 227.553 1019.61 227.023C1020.18 226.492 1020.62 225.841 1020.9 225.068L1031.11 225.364C1030.68 227.652 1029.75 229.644 1028.31 231.341C1026.89 233.023 1025.02 234.333 1022.7 235.273C1020.38 236.197 1017.7 236.659 1014.65 236.659Z" fill="black"/>
<rect x="56" y="562" width="272" height="313" fill="#D9D9D9"/>
<rect x="620" y="562" width="272" height="313" fill="#D9D9D9"/>
<rect x="620" y="898" width="272" height="313" fill="#D9D9D9"/>
<rect x="902" y="898" width="272" height="313" fill="#D9D9D9"/>
<rect x="1184" y="898" width="272" height="313" fill="#D9D9D9"/>
<rect x="56" y="898" width="272" height="313" fill="#D9D9D9"/>
<rect x="338" y="898" width="272" height="313" fill="#D9D9D9"/>
<rect x="902" y="562" width="272" height="313" fill="#D9D9D9"/>
<rect x="1184" y="562" width="272" height="313" fill="#D9D9D9"/>
<rect x="338" y="562" width="272" height="313" fill="#D9D9D9"/>
</g>
<defs>
<clipPath id="clip0_1_2">
<rect width="1512" height="982" fill="white"/>
</clipPath>
</defs>
</svg>
